<mxfile host="app.diagrams.net" modified="2024-05-27T20:52:30.054Z" agent="Mozilla/5.0 (Windows NT 10.0; Win64; x64) AppleWebKit/537.36 (KHTML, like Gecko) Chrome/125.0.0.0 Safari/537.36" version="24.4.9" etag="7hAOFWFqjb0VyQbbOIi7" type="github">
  <diagram name="Page-1" id="xIBqGoiNCvzrDv0mRzyI">
    <mxGraphModel>
      <root>
        <mxCell id="0" />
        <mxCell id="1" parent="0" />
      </root>
    </mxGraphModel>
  </diagram>
</mxfile>
